<?xml version="1.0" encoding="UTF-8" standalone="no"?>
<!DOCTYPE svg PUBLIC "-//W3C//DTD SVG 1.1//EN" "http://www.w3.org/Graphics/SVG/1.1/DTD/svg11.dtd">
<svg width="100%" height="100%" viewBox="0 0 571 570" version="1.1" xmlns="http://www.w3.org/2000/svg" xmlns:xlink="http://www.w3.org/1999/xlink" xml:space="preserve" xmlns:serif="http://www.serif.com/" style="fill-rule:evenodd;clip-rule:evenodd;stroke-linejoin:round;stroke-miterlimit:2;">
    <g transform="matrix(1,0,0,1,-2177.558259,-891.583117)">
        <g id="Icon" transform="matrix(0.277589,0,0,0.722433,2118.154273,-142.941598)">
            <rect x="214" y="1432" width="2057" height="789" style="fill:none;"/>
            <g transform="matrix(5.975153,0,0,2.2959,-15267.932758,1067.017606)">
                <path d="M2890.06,430.945C2862.509,467.305 2818.863,490.81 2769.771,490.81C2686.524,490.81 2618.938,423.224 2618.938,339.977C2618.938,295.012 2632.081,189.144 2632.081,189.144L2769.771,189.144C2853.018,189.144 2916.294,306.761 2912.347,301.405C2908.4,296.048 2903.325,291.867 2897.123,288.859C2890.921,285.852 2884.061,283.832 2876.543,282.798C2869.026,281.765 2861.602,281.248 2854.272,281.248C2846.19,281.248 2838.156,282.046 2830.168,283.644C2822.181,285.241 2814.992,287.92 2808.602,291.679C2802.212,295.437 2796.949,300.418 2792.814,306.62C2788.68,312.822 2786.33,320.622 2785.766,330.019L2825.799,330.019C2826.55,322.126 2829.182,316.487 2833.692,313.104C2838.203,309.721 2844.405,308.03 2852.299,308.03C2855.87,308.03 2859.206,308.265 2862.307,308.735C2865.408,309.204 2868.133,310.144 2870.482,311.554C2872.832,312.963 2874.711,314.937 2876.121,317.474C2877.53,320.011 2878.235,323.441 2878.235,327.764C2878.423,331.899 2877.201,335.047 2874.57,337.208C2871.939,339.369 2868.368,341.014 2863.857,342.142C2859.347,343.269 2854.178,344.115 2848.352,344.679C2842.526,345.243 2836.605,345.994 2830.591,346.934C2824.577,347.874 2818.61,349.142 2812.689,350.74C2806.769,352.338 2801.507,354.734 2796.902,357.929C2792.298,361.124 2788.539,365.4 2785.626,370.756C2782.712,376.112 2781.256,382.925 2781.256,391.195C2781.256,398.713 2782.524,405.197 2785.062,410.647C2787.599,416.098 2791.123,420.608 2795.634,424.179C2800.144,427.75 2805.407,430.381 2811.421,432.073C2817.435,433.764 2823.919,434.61 2830.873,434.61C2839.894,434.61 2848.728,433.294 2857.373,430.663C2866.019,428.032 2873.536,423.427 2879.926,416.849C2880.114,419.293 2880.443,421.689 2880.913,424.038C2881.383,426.388 2881.994,428.69 2882.746,430.945L2890.06,430.945ZM2738.968,285.195L2738.968,241.498L2698.936,241.498L2698.936,285.195L2674.691,285.195L2674.691,311.977L2698.936,311.977L2698.936,397.961C2698.936,405.291 2700.158,411.211 2702.601,415.722C2705.044,420.232 2708.38,423.709 2712.609,426.153C2716.838,428.596 2721.725,430.24 2727.269,431.086C2732.813,431.932 2738.686,432.355 2744.889,432.355C2748.835,432.355 2752.876,432.261 2757.011,432.073C2761.146,431.885 2764.905,431.509 2768.288,430.945L2768.288,399.934C2766.408,400.31 2764.435,400.592 2762.367,400.78C2760.3,400.968 2758.139,401.062 2755.883,401.062C2749.117,401.062 2744.607,399.934 2742.351,397.679C2740.096,395.424 2738.968,390.913 2738.968,384.147L2738.968,311.977L2768.288,311.977L2768.288,285.195L2738.968,285.195ZM2878.235,359.62L2878.235,374.562C2878.235,376.817 2878,379.824 2877.53,383.583C2877.06,387.342 2875.792,391.054 2873.724,394.719C2871.657,398.384 2868.462,401.532 2864.139,404.163C2859.816,406.794 2853.708,408.11 2845.815,408.11C2842.62,408.11 2839.518,407.828 2836.511,407.264C2833.504,406.7 2830.873,405.714 2828.618,404.304C2826.362,402.895 2824.577,400.968 2823.261,398.525C2821.946,396.082 2821.288,393.074 2821.288,389.503C2821.288,385.745 2821.946,382.644 2823.261,380.2C2824.577,377.757 2826.315,375.737 2828.477,374.139C2830.638,372.542 2833.175,371.273 2836.088,370.333C2839.002,369.393 2841.962,368.642 2844.969,368.078C2848.164,367.514 2851.359,367.044 2854.554,366.668C2857.749,366.292 2860.803,365.823 2863.716,365.259C2866.629,364.695 2869.355,363.99 2871.892,363.144C2874.429,362.299 2876.543,361.124 2878.235,359.62Z" style="fill:rgb(29,78,216);"/>
            </g>
        </g>
    </g>
</svg>
