<?xml version="1.0" encoding="UTF-8" standalone="no"?>
<!DOCTYPE svg PUBLIC "-//W3C//DTD SVG 1.1//EN" "http://www.w3.org/Graphics/SVG/1.1/DTD/svg11.dtd">
<svg width="100%" height="100%" viewBox="0 0 2057 789" version="1.1" xmlns="http://www.w3.org/2000/svg" xmlns:xlink="http://www.w3.org/1999/xlink" xml:space="preserve" xmlns:serif="http://www.serif.com/" style="fill-rule:evenodd;clip-rule:evenodd;stroke-linejoin:round;stroke-miterlimit:2;">
    <g id="Logo" transform="matrix(1,0,0,1,-214,-1432)">
        <rect x="214" y="1432" width="2057" height="789" style="fill:none;"/>
        <g transform="matrix(1,0,0,1,-85.946834,455.598341)">
            <path d="M558.047,1225.23L543.398,1354.723C540.859,1377.965 539.59,1395.152 539.59,1406.285C539.59,1428.355 547.109,1439.391 562.148,1439.391C578.359,1439.391 595.156,1426.109 612.539,1399.547C615.469,1403.258 616.934,1406.578 616.934,1409.508C616.934,1420.445 607.314,1433.531 588.076,1448.766C568.838,1464 552.285,1471.617 538.418,1471.617C510.684,1471.617 496.816,1453.844 496.816,1418.297C496.816,1405.211 498.477,1384.02 501.797,1354.723L516.152,1225.23L454.336,1225.23L488.613,1191.246L519.961,1191.246L526.113,1137.926L569.18,1123.57L561.855,1191.246L686.074,1191.246L651.797,1225.23L558.047,1225.23Z" style="fill:rgb(255,2,0);fill-rule:nonzero;"/>
            <path d="M720.031,1287.779L684.286,1322.158C678.063,1305.917 674.951,1290.208 674.951,1275.029C674.951,1237.387 691.268,1207.03 723.901,1183.959C751.222,1164.531 797.972,1154.817 864.149,1154.817C875.381,1154.817 885.247,1155.044 893.747,1155.5C917.274,1157.017 929.341,1157.776 929.948,1157.776L945.885,1157.776C934.046,1176.294 928.126,1213.785 928.126,1270.248L928.354,1282.087L929.265,1308.27C929.265,1339.689 933.135,1371.867 940.876,1404.804C943.912,1417.554 946.872,1425.751 949.755,1429.393C952.639,1433.036 957.648,1434.858 964.782,1434.858C972.523,1434.858 981.326,1432.353 991.192,1427.344C992.255,1429.925 992.786,1432.05 992.786,1433.719C992.786,1437.514 989.826,1440.777 983.907,1443.509L973.206,1448.746L917.198,1473.107C904.752,1434.706 897.238,1394.483 894.658,1352.439L877.355,1364.506L800.856,1364.506C786.892,1400.023 767.767,1425.371 743.481,1440.549L790.61,1442.826L766.021,1468.781L675.179,1465.594L705.46,1438.273L728.227,1439.639C738.548,1432.05 747.352,1421.387 754.638,1407.65C761.923,1393.914 772.776,1367.314 787.195,1327.85L794.025,1308.953C807.989,1270.855 821.271,1243.117 833.869,1225.738C846.467,1208.358 863.618,1194.053 885.323,1182.821C861.493,1178.419 836.373,1176.218 809.963,1176.218C742.722,1176.218 709.102,1198.91 709.102,1244.293C709.102,1259.775 712.745,1274.27 720.031,1287.779ZM894.203,1339.917C892.078,1313.506 891.015,1292.105 891.015,1275.712C891.015,1267.364 891.167,1260.534 891.471,1255.222L893.292,1228.811C894.506,1210.749 896.176,1196.937 898.301,1187.374C868.551,1205.588 844.114,1242.775 824.989,1298.935C819.525,1315.176 816.338,1324.511 815.427,1326.939L810.19,1339.917L894.203,1339.917Z" style="fill:rgb(255,2,0);fill-rule:nonzero;"/>
            <path d="M1026.937,1458.536L1055.852,1427.8L1062.91,1429.393C1072.017,1431.67 1080.669,1433.34 1088.865,1434.402C1101.16,1426.813 1109.47,1417.668 1113.796,1406.967C1118.121,1396.267 1122.03,1375.434 1125.521,1344.47L1144.646,1173.031C1113.075,1175.307 1087.879,1183.807 1069.057,1198.53C1050.236,1213.253 1040.826,1231.771 1040.826,1254.083C1040.826,1267.44 1044.165,1280.038 1050.843,1291.877L1014.188,1324.207C1011,1312.52 1009.406,1300.681 1009.406,1288.69C1009.406,1247.708 1026.9,1214.126 1061.886,1187.943C1096.872,1161.761 1141.61,1148.669 1196.1,1148.669C1266.376,1148.669 1301.514,1168.857 1301.514,1209.231C1301.514,1243.686 1278.822,1271.235 1233.439,1291.877C1277.76,1309.181 1299.92,1335.743 1299.92,1371.564C1299.92,1400.706 1285.121,1423.929 1255.524,1441.232C1225.926,1458.536 1186.31,1467.187 1136.677,1467.187C1106.169,1467.187 1069.589,1464.304 1026.937,1458.536ZM1181.529,1171.209L1168.096,1291.877C1177.052,1292.636 1184.792,1293.016 1191.319,1293.016C1198.605,1293.016 1207.332,1292.484 1217.502,1291.422C1249.832,1272.753 1265.997,1250.289 1265.997,1224.03C1265.997,1188.816 1237.841,1171.209 1181.529,1171.209ZM1166.047,1310.091L1162.632,1340.6L1160.583,1359.725C1158.003,1382.34 1153.487,1398.24 1147.036,1407.423C1140.585,1416.606 1126.887,1426.509 1105.941,1437.134C1135.994,1441.991 1165.668,1444.42 1194.962,1444.42C1242.318,1444.42 1265.997,1425.599 1265.997,1387.956C1265.997,1371.716 1259.508,1356.044 1246.53,1340.941C1233.553,1325.839 1217.73,1315.556 1199.06,1310.091L1193.141,1310.319L1182.212,1310.774L1172.194,1310.319L1166.047,1310.091Z" style="fill:rgb(255,2,0);fill-rule:nonzero;"/>
            <path d="M1315.63,1458.08L1353.88,1428.255C1365.567,1430.38 1375.433,1431.67 1383.477,1432.125C1400.932,1425.447 1413.227,1413.873 1420.361,1397.405C1427.495,1380.936 1431.062,1355.93 1431.062,1322.386L1431.972,1287.096C1431.972,1241.713 1447.454,1206.195 1478.418,1180.544C1504.221,1159.294 1531.466,1148.669 1560.154,1148.669C1572.448,1148.669 1585.046,1151.477 1597.948,1157.093L1564.252,1190.106C1550.439,1181.151 1536.779,1176.673 1523.27,1176.673C1489.422,1176.673 1472.498,1204.374 1472.498,1259.775L1471.588,1291.194C1471.588,1334.149 1467.49,1365.606 1459.293,1385.566C1451.097,1405.525 1435.387,1422.032 1412.164,1435.085L1459.293,1438.956L1480.239,1440.549L1505.511,1442.143C1512.19,1442.599 1519.703,1442.826 1528.051,1442.826C1565.694,1442.826 1595.064,1431.898 1616.162,1410.041C1618.59,1413.077 1619.805,1415.277 1619.805,1416.643C1619.805,1421.652 1612.519,1430.228 1597.948,1442.371C1573.055,1462.862 1546.341,1473.107 1517.806,1473.107C1506.119,1473.107 1491.775,1472.5 1474.775,1471.286L1407.156,1466.277C1371.942,1463.696 1341.433,1460.964 1315.63,1458.08Z" style="fill:rgb(255,2,0);fill-rule:nonzero;"/>
            <path d="M1687.88,1288.69L1650.996,1324.207C1647.353,1312.065 1645.532,1300.529 1645.532,1289.601C1645.532,1247.101 1663.215,1212.722 1698.58,1186.464C1724.383,1167.339 1761.115,1157.776 1808.775,1157.776L1883.908,1157.776C1912.14,1157.776 1940.979,1156.79 1970.425,1154.817L1951.983,1201.49L1948.34,1209.914C1944.546,1218.869 1939.689,1223.347 1933.769,1223.347C1932.858,1223.347 1931.796,1223.271 1930.582,1223.119C1932.251,1215.53 1933.086,1209.459 1933.086,1204.905C1933.086,1194.888 1927.812,1188.626 1917.263,1186.122C1906.714,1183.618 1880.417,1182.365 1838.373,1182.365L1816.289,1182.365L1804.222,1292.56L1848.618,1292.56C1874.27,1292.56 1897.037,1291.346 1916.921,1288.918C1899.618,1309.712 1882.163,1320.109 1864.556,1320.109C1854.69,1320.109 1840.726,1319.35 1822.663,1317.832C1815.226,1317.377 1809.989,1317.149 1806.954,1317.149L1801.49,1317.149L1799.213,1336.957C1796.025,1365.796 1790.979,1386.287 1784.072,1398.429C1777.166,1410.572 1763.62,1422.791 1743.432,1435.085L1793.293,1438.956L1813.556,1440.777C1827.824,1441.84 1844.9,1442.371 1864.783,1442.371C1898.328,1442.371 1926.256,1431.518 1948.568,1409.813C1951.148,1412.697 1952.438,1415.429 1952.438,1418.01C1952.438,1422.259 1944.318,1430.987 1928.077,1444.192C1904.399,1463.469 1878.52,1473.107 1850.44,1473.107C1824.485,1473.107 1787.146,1470.906 1738.423,1466.504L1653.501,1458.763C1650.617,1458.612 1640.371,1458.005 1622.764,1456.942L1664.429,1425.523C1679.456,1428.103 1697.518,1430.38 1718.616,1432.353C1733.491,1426.585 1743.508,1418.389 1748.669,1407.764C1753.83,1397.139 1758.155,1375.738 1761.646,1343.56L1779.633,1182.365L1771.664,1182.365C1742.218,1182.365 1719.147,1188.399 1702.451,1200.466C1685.755,1212.532 1677.406,1229.191 1677.406,1250.44C1677.406,1262.735 1680.897,1275.485 1687.88,1288.69Z" style="fill:rgb(255,2,0);fill-rule:nonzero;"/>
            <path d="M1977.027,1423.701L2015.732,1400.251C2021.804,1437.59 2044.192,1456.259 2082.897,1456.259C2101.718,1456.259 2117.124,1451.136 2129.115,1440.891C2141.106,1430.646 2147.101,1417.478 2147.101,1401.389C2147.101,1379.381 2133.82,1357.524 2107.258,1335.819L2079.709,1313.506C2057.549,1295.292 2042.75,1280.911 2035.312,1270.362C2027.875,1259.813 2024.156,1247.936 2024.156,1234.731C2024.156,1209.838 2034.098,1189.272 2053.982,1173.031C2073.865,1156.79 2098.986,1148.669 2129.342,1148.669C2153.476,1148.669 2176.319,1154.437 2197.873,1165.973L2184.668,1196.254L2178.748,1209.686C2175.409,1217.579 2171.462,1221.526 2166.909,1221.526C2164.936,1221.526 2162.887,1220.767 2160.762,1219.249C2163.342,1211.356 2164.632,1205.057 2164.632,1200.352C2164.632,1190.638 2159.282,1182.517 2148.581,1175.99C2137.88,1169.464 2124.637,1166.2 2108.852,1166.2C2073.031,1166.2 2055.12,1180.999 2055.12,1210.597C2055.12,1221.222 2059.104,1231.429 2067.073,1241.219C2075.042,1251.01 2091.624,1266.15 2116.82,1286.641L2138.905,1304.855C2166.985,1327.622 2181.025,1351.528 2181.025,1376.573C2181.025,1404.197 2169.375,1427.192 2146.077,1445.558C2122.778,1463.924 2093.673,1473.107 2058.763,1473.107C2016.264,1473.107 1989.018,1456.638 1977.027,1423.701Z" style="fill:rgb(255,2,0);fill-rule:nonzero;"/>
        </g>
        <g transform="matrix(1,0,0,1,-167.178298,-39)">
            <path d="M508.856,2120.624C510.059,2121.199 510.66,2122.036 510.66,2123.134C510.66,2126.585 507.496,2131.135 501.169,2136.783C490.448,2146.353 478.264,2151.138 464.615,2151.138C453.58,2151.138 444.782,2147.15 438.219,2139.175C431.656,2131.2 428.374,2120.493 428.374,2107.053C428.374,2087.861 434.519,2071.78 446.808,2058.811C459.097,2045.842 474.341,2039.357 492.54,2039.357C501.796,2039.357 511.392,2041.109 521.328,2044.613L516.073,2056.144L514.582,2059.517C513.327,2062.184 511.785,2063.517 509.954,2063.517C509.588,2063.517 509.039,2063.439 508.307,2063.282C509.039,2061.661 509.405,2060.328 509.405,2059.282C509.405,2055.778 507.065,2052.719 502.385,2050.104C497.704,2047.489 492.252,2046.182 486.029,2046.182C473.269,2046.182 462.902,2051.228 454.927,2061.321C446.952,2071.414 442.964,2084.54 442.964,2100.699C442.964,2113.198 445.762,2123.16 451.358,2130.586C456.953,2138.012 464.432,2141.725 473.792,2141.725C480.538,2141.725 487.271,2139.698 493.991,2135.645C500.711,2131.592 505.666,2126.585 508.856,2120.624Z" style="fill:rgb(255,2,0);fill-rule:nonzero;"/>
            <path d="M542.743,2150.04C530.977,2150.04 525.094,2142.248 525.094,2126.664C525.094,2114.113 529.696,2102.02 538.9,2090.384C548.103,2078.748 557.647,2072.931 567.531,2072.931C579.454,2072.931 585.416,2080.723 585.416,2096.306C585.416,2108.91 580.814,2121.016 571.61,2132.625C562.406,2144.235 552.784,2150.04 542.743,2150.04ZM552.235,2141.254C558.249,2141.254 563.282,2137.907 567.335,2131.213C571.388,2124.52 573.414,2116.179 573.414,2106.19C573.414,2089.874 568.342,2081.716 558.196,2081.716C552.235,2081.716 547.228,2085.076 543.175,2091.796C539.122,2098.516 537.095,2106.844 537.095,2116.78C537.095,2133.096 542.142,2141.254 552.235,2141.254Z" style="fill:rgb(255,2,0);fill-rule:nonzero;"/>
            <path d="M615.381,2145.255L603.693,2150.04L603.928,2147.843L604.556,2142.038L605.183,2136.547L609.262,2100.15L609.733,2095.993C610.047,2092.75 610.204,2090.136 610.204,2088.148C610.204,2084.802 609.367,2083.128 607.694,2083.128C603.771,2083.128 599.562,2087.573 595.064,2096.463C593.862,2095.47 593.26,2094.607 593.26,2093.875C593.26,2090.737 596.123,2086.462 601.85,2081.049C607.576,2075.637 612.086,2072.931 615.381,2072.931C619.878,2072.931 622.127,2075.807 622.127,2081.559C622.127,2083.024 621.996,2084.985 621.735,2087.442L621.107,2093.796L620.48,2099.13L619.852,2104.7C626.023,2095.496 632.782,2087.9 640.13,2081.912C647.477,2075.924 653.739,2072.931 658.916,2072.931C663.989,2072.931 666.525,2076.46 666.525,2083.52C666.525,2085.664 666.238,2088.881 665.663,2093.169L661.427,2122.428C660.59,2128.285 660.172,2132.913 660.172,2136.312C660.172,2139.031 660.904,2140.391 662.368,2140.391C665.976,2140.391 670.421,2135.58 675.703,2125.958C676.958,2126.742 677.586,2127.553 677.586,2128.389C677.586,2131.789 674.67,2136.247 668.839,2141.764C663.009,2147.281 658.263,2150.04 654.602,2150.04C650.523,2150.04 648.484,2147.111 648.484,2141.254C648.484,2136.966 649.033,2131.03 650.131,2123.448L652.876,2104.464C653.765,2098.294 654.21,2093.404 654.21,2089.796C654.21,2085.664 652.772,2083.599 649.896,2083.599C643.202,2083.599 636.417,2088.135 629.54,2097.209C622.663,2106.282 618.649,2116.022 617.499,2126.428L615.381,2145.255Z" style="fill:rgb(255,2,0);fill-rule:nonzero;"/>
            <path d="M709.512,2084.069L705.59,2118.741C704.91,2124.964 704.57,2129.566 704.57,2132.547C704.57,2138.456 706.583,2141.411 710.61,2141.411C714.951,2141.411 719.448,2137.855 724.102,2130.743C724.887,2131.736 725.279,2132.625 725.279,2133.41C725.279,2136.338 722.703,2139.842 717.552,2143.921C712.401,2148 707.969,2150.04 704.256,2150.04C696.83,2150.04 693.117,2145.281 693.117,2135.763C693.117,2132.259 693.562,2126.585 694.451,2118.741L698.295,2084.069L681.743,2084.069L690.921,2074.97L699.314,2074.97L700.962,2060.694L712.493,2056.85L710.532,2074.97L743.791,2074.97L734.613,2084.069L709.512,2084.069Z" style="fill:rgb(255,2,0);fill-rule:nonzero;"/>
            <path d="M789.445,2123.055C790.752,2123.944 791.406,2124.99 791.406,2126.193C791.406,2127.814 789.732,2130.586 786.385,2134.508C777.443,2144.862 768.605,2150.04 759.872,2150.04C754.538,2150.04 750.145,2147.922 746.694,2143.686C743.242,2139.45 741.516,2134.037 741.516,2127.448C741.516,2115.525 746.027,2103.458 755.048,2091.247C764.069,2079.036 772.998,2072.931 781.836,2072.931C788.216,2072.931 791.406,2076.356 791.406,2083.207C791.406,2090.894 787.68,2098.398 780.228,2105.72C772.776,2113.041 763.689,2118.14 752.969,2121.016C754.015,2133.619 758.983,2139.92 767.873,2139.92C776.659,2139.92 783.849,2134.299 789.445,2123.055ZM753.283,2111.446C754.799,2111.969 756.185,2112.23 757.44,2112.23C763.925,2112.23 769.599,2110.243 774.462,2106.269C779.326,2102.294 781.757,2097.64 781.757,2092.306C781.757,2086.187 778.646,2083.128 772.423,2083.128C767.925,2083.128 763.859,2085.808 760.225,2091.168C756.59,2096.529 754.276,2103.288 753.283,2111.446Z" style="fill:rgb(255,2,0);fill-rule:nonzero;"/>
            <path d="M822.626,2145.255L810.938,2150.04L811.173,2147.843L811.801,2142.038L812.428,2136.547L816.507,2100.15L816.978,2095.993C817.292,2092.75 817.449,2090.136 817.449,2088.148C817.449,2084.802 816.612,2083.128 814.938,2083.128C811.016,2083.128 806.807,2087.573 802.309,2096.463C801.106,2095.47 800.505,2094.607 800.505,2093.875C800.505,2090.737 803.368,2086.462 809.095,2081.049C814.821,2075.637 819.331,2072.931 822.626,2072.931C827.123,2072.931 829.372,2075.807 829.372,2081.559C829.372,2083.024 829.241,2084.985 828.98,2087.442L828.352,2093.796L827.725,2099.13L827.097,2104.7C833.268,2095.496 840.027,2087.9 847.374,2081.912C854.722,2075.924 860.984,2072.931 866.161,2072.931C871.234,2072.931 873.77,2076.46 873.77,2083.52C873.77,2085.664 873.483,2088.881 872.907,2093.169L868.672,2122.428C867.835,2128.285 867.416,2132.913 867.416,2136.312C867.416,2139.031 868.149,2140.391 869.613,2140.391C873.221,2140.391 877.666,2135.58 882.948,2125.958C884.203,2126.742 884.831,2127.553 884.831,2128.389C884.831,2131.789 881.915,2136.247 876.084,2141.764C870.253,2147.281 865.508,2150.04 861.847,2150.04C857.768,2150.04 855.729,2147.111 855.729,2141.254C855.729,2136.966 856.278,2131.03 857.376,2123.448L860.121,2104.464C861.01,2098.294 861.455,2093.404 861.455,2089.796C861.455,2085.664 860.017,2083.599 857.141,2083.599C850.447,2083.599 843.661,2088.135 836.785,2097.209C829.908,2106.282 825.894,2116.022 824.744,2126.428L822.626,2145.255Z" style="fill:rgb(255,2,0);fill-rule:nonzero;"/>
            <path d="M916.757,2084.069L912.835,2118.741C912.155,2124.964 911.815,2129.566 911.815,2132.547C911.815,2138.456 913.828,2141.411 917.855,2141.411C922.195,2141.411 926.693,2137.855 931.347,2130.743C932.131,2131.736 932.524,2132.625 932.524,2133.41C932.524,2136.338 929.948,2139.842 924.797,2143.921C919.646,2148 915.214,2150.04 911.501,2150.04C904.075,2150.04 900.362,2145.281 900.362,2135.763C900.362,2132.259 900.807,2126.585 901.696,2118.741L905.54,2084.069L888.988,2084.069L898.166,2074.97L906.559,2074.97L908.207,2060.694L919.738,2056.85L917.777,2074.97L951.036,2074.97L941.858,2084.069L916.757,2084.069Z" style="fill:rgb(255,2,0);fill-rule:nonzero;"/>
            <path d="M1009.397,2087.129L996.611,2099.366C995.408,2095.287 994.807,2091.208 994.807,2087.129C994.807,2074.16 999.71,2063.4 1009.515,2054.85C1019.32,2046.299 1031.649,2042.024 1046.501,2042.024C1048.958,2042.024 1051.129,2042.129 1053.011,2042.338C1054.266,2042.443 1055.103,2042.495 1055.521,2042.495L1056.541,2042.495C1056.489,2044.011 1056.463,2045.11 1056.463,2045.79C1056.463,2053.843 1059.967,2066.812 1066.974,2084.697L1070.504,2093.639C1070.975,2094.894 1071.733,2096.96 1072.779,2099.836L1075.681,2107.994C1077.25,2112.283 1078.61,2116.545 1079.76,2120.78L1083.839,2114.034C1088.337,2106.556 1092.363,2099.758 1095.919,2093.639L1103.607,2080.383L1109.568,2069.401L1116.785,2056.222C1117.465,2055.02 1118.798,2052.562 1120.786,2048.849L1135.925,2039.357C1132.578,2058.863 1130.905,2074.526 1130.905,2086.344L1129.885,2111.995L1129.65,2121.643C1129.65,2129.801 1130.186,2135.149 1131.258,2137.685C1132.33,2140.221 1134.618,2141.489 1138.121,2141.489C1141.834,2141.489 1145.155,2140.966 1148.084,2139.92C1148.554,2140.548 1148.79,2141.097 1148.79,2141.568C1148.79,2143.293 1147.011,2144.575 1143.455,2145.411L1139.298,2146.431L1117.02,2150.981C1116.759,2146.065 1116.628,2141.542 1116.628,2137.41C1116.628,2110.74 1117.805,2087.05 1120.158,2066.341C1112.941,2076.591 1107.503,2084.906 1103.842,2091.286L1099.135,2099.366C1092.703,2110.452 1087.5,2121.147 1083.525,2131.449L1072.23,2143.215C1071.498,2133.331 1067.602,2119.447 1060.542,2101.562L1057.483,2093.639C1057.064,2092.698 1056.123,2090.397 1054.659,2086.736C1051.678,2079.52 1049.455,2072.617 1047.991,2066.028L1041.637,2104.857C1039.755,2116.518 1037.793,2124.454 1035.754,2128.664C1033.714,2132.874 1030.106,2136.338 1024.929,2139.058L1044.696,2140.548L1034.656,2149.726L1001.161,2148L1011.28,2138.273L1020.144,2139.058C1023.595,2136.495 1026.053,2133.357 1027.517,2129.644C1028.982,2125.932 1030.681,2118.427 1032.616,2107.131L1042.029,2051.986L1038.343,2051.986C1016.588,2051.986 1005.71,2059.177 1005.71,2073.558C1005.71,2078.055 1006.939,2082.579 1009.397,2087.129Z" style="fill:rgb(255,2,0);fill-rule:nonzero;"/>
            <path d="M1201.581,2116.858C1195.672,2126.585 1189.174,2134.547 1182.088,2140.744C1175.002,2146.941 1168.845,2150.04 1163.615,2150.04C1156.451,2150.04 1152.869,2144.261 1152.869,2132.704C1152.869,2116.806 1158.085,2103.039 1168.518,2091.404C1178.951,2079.768 1191.305,2073.95 1205.582,2073.95C1211.021,2073.95 1215.649,2074.63 1219.466,2075.99C1219.205,2076.931 1219.048,2077.506 1218.995,2077.716L1218.054,2081.873C1217.427,2084.749 1217.087,2086.423 1217.034,2086.893L1212.014,2121.565L1211.308,2126.585C1210.628,2131.553 1210.288,2134.874 1210.288,2136.547C1210.288,2138.796 1210.942,2139.92 1212.249,2139.92C1216.642,2139.92 1221.14,2135.005 1225.742,2125.173C1227.153,2126.01 1227.859,2126.847 1227.859,2127.683C1227.859,2129.514 1225.611,2133.201 1221.113,2138.744C1214.995,2146.274 1209.321,2150.04 1204.091,2150.04C1200.274,2150.04 1198.365,2147.477 1198.365,2142.352C1198.365,2140.783 1198.548,2138.613 1198.914,2135.841L1199.699,2129.566L1200.718,2122.663L1201.581,2116.858ZM1206.052,2085.717C1201.294,2083.05 1196.483,2081.716 1191.619,2081.716C1184.298,2081.716 1178.153,2086.187 1173.185,2095.13C1168.217,2104.072 1165.733,2115.159 1165.733,2128.389C1165.733,2135.188 1167.746,2138.587 1171.773,2138.587C1176.427,2138.587 1182.049,2135.031 1188.638,2127.919C1197.528,2118.349 1202.915,2107.105 1204.797,2094.188L1206.052,2085.717Z" style="fill:rgb(255,2,0);fill-rule:nonzero;"/>
            <path d="M1256.413,2145.255L1244.725,2150.04L1244.96,2147.843L1245.587,2142.038L1246.215,2136.547L1250.294,2100.15L1250.765,2095.993C1251.078,2092.75 1251.235,2090.136 1251.235,2088.148C1251.235,2084.802 1250.399,2083.128 1248.725,2083.128C1244.803,2083.128 1240.593,2087.573 1236.096,2096.463C1234.893,2095.47 1234.292,2094.607 1234.292,2093.875C1234.292,2090.737 1237.155,2086.462 1242.881,2081.049C1248.608,2075.637 1253.118,2072.931 1256.413,2072.931C1260.91,2072.931 1263.159,2075.807 1263.159,2081.559C1263.159,2083.024 1263.028,2084.985 1262.766,2087.442L1262.139,2093.796L1261.511,2099.13L1260.884,2104.7C1267.055,2095.496 1273.814,2087.9 1281.161,2081.912C1288.509,2075.924 1294.771,2072.931 1299.948,2072.931C1305.021,2072.931 1307.557,2076.46 1307.557,2083.52C1307.557,2085.664 1307.269,2088.881 1306.694,2093.169L1302.458,2122.428C1301.622,2128.285 1301.203,2132.913 1301.203,2136.312C1301.203,2139.031 1301.935,2140.391 1303.4,2140.391C1307.008,2140.391 1311.453,2135.58 1316.735,2125.958C1317.99,2126.742 1318.617,2127.553 1318.617,2128.389C1318.617,2131.789 1315.702,2136.247 1309.871,2141.764C1304.04,2147.281 1299.294,2150.04 1295.634,2150.04C1291.555,2150.04 1289.515,2147.111 1289.515,2141.254C1289.515,2136.966 1290.064,2131.03 1291.163,2123.448L1293.908,2104.464C1294.797,2098.294 1295.242,2093.404 1295.242,2089.796C1295.242,2085.664 1293.803,2083.599 1290.927,2083.599C1284.233,2083.599 1277.448,2088.135 1270.571,2097.209C1263.695,2106.282 1259.681,2116.022 1258.53,2126.428L1256.413,2145.255Z" style="fill:rgb(255,2,0);fill-rule:nonzero;"/>
            <path d="M1374.704,2116.858C1368.794,2126.585 1362.297,2134.547 1355.211,2140.744C1348.125,2146.941 1341.967,2150.04 1336.738,2150.04C1329.573,2150.04 1325.991,2144.261 1325.991,2132.704C1325.991,2116.806 1331.207,2103.039 1341.64,2091.404C1352.073,2079.768 1364.428,2073.95 1378.704,2073.95C1384.143,2073.95 1388.771,2074.63 1392.589,2075.99C1392.327,2076.931 1392.17,2077.506 1392.118,2077.716L1391.177,2081.873C1390.549,2084.749 1390.209,2086.423 1390.157,2086.893L1385.137,2121.565L1384.431,2126.585C1383.751,2131.553 1383.411,2134.874 1383.411,2136.547C1383.411,2138.796 1384.065,2139.92 1385.372,2139.92C1389.765,2139.92 1394.262,2135.005 1398.864,2125.173C1400.276,2126.01 1400.982,2126.847 1400.982,2127.683C1400.982,2129.514 1398.733,2133.201 1394.236,2138.744C1388.117,2146.274 1382.443,2150.04 1377.214,2150.04C1373.396,2150.04 1371.488,2147.477 1371.488,2142.352C1371.488,2140.783 1371.671,2138.613 1372.037,2135.841L1372.821,2129.566L1373.841,2122.663L1374.704,2116.858ZM1379.175,2085.717C1374.416,2083.05 1369.605,2081.716 1364.742,2081.716C1357.42,2081.716 1351.276,2086.187 1346.308,2095.13C1341.34,2104.072 1338.856,2115.159 1338.856,2128.389C1338.856,2135.188 1340.869,2138.587 1344.896,2138.587C1349.55,2138.587 1355.172,2135.031 1361.761,2127.919C1370.651,2118.349 1376.037,2107.105 1377.92,2094.188L1379.175,2085.717Z" style="fill:rgb(255,2,0);fill-rule:nonzero;"/>
            <path d="M1460.128,2085.717C1456.362,2083.05 1451.63,2081.716 1445.929,2081.716C1438.765,2081.716 1432.712,2086.214 1427.77,2095.208C1422.828,2104.203 1420.357,2115.263 1420.357,2128.389C1420.357,2135.188 1422.371,2138.587 1426.397,2138.587C1430.999,2138.587 1436.621,2135.031 1443.262,2127.919C1452.466,2118.035 1457.748,2106.844 1459.108,2094.345L1460.128,2085.717ZM1473.541,2075.99C1473.28,2076.931 1473.123,2077.506 1473.071,2077.716L1472.208,2081.873C1471.528,2084.906 1471.162,2086.58 1471.109,2086.893L1467.972,2115.603C1467.449,2120.414 1466.9,2128.86 1466.324,2140.94C1465.592,2156.053 1464.154,2167.245 1462.01,2174.514C1459.866,2181.783 1456.075,2188.267 1450.636,2193.967C1438.19,2207.093 1424.933,2213.656 1410.866,2213.656C1404.067,2213.656 1398.419,2211.355 1393.922,2206.753C1389.425,2202.151 1387.176,2196.399 1387.176,2189.496C1387.176,2175.429 1395.779,2161.544 1412.984,2147.843C1409.323,2144.967 1407.493,2139.894 1407.493,2132.625C1407.493,2116.832 1412.696,2103.105 1423.103,2091.443C1433.509,2079.781 1445.799,2073.95 1459.971,2073.95C1465.985,2073.95 1470.508,2074.63 1473.541,2075.99ZM1456.598,2117.172C1442.478,2138.718 1429.692,2149.49 1418.239,2149.49C1417.769,2149.49 1416.932,2149.438 1415.729,2149.334C1403.597,2161.571 1397.53,2172.474 1397.53,2182.044C1397.53,2188.581 1399.845,2194.059 1404.473,2198.478C1409.101,2202.897 1414.84,2205.106 1421.691,2205.106C1432.254,2205.106 1440.36,2200.452 1446.008,2191.143C1450.296,2183.979 1453.277,2166.905 1454.95,2139.92C1455.578,2129.723 1456.127,2122.14 1456.598,2117.172Z" style="fill:rgb(255,2,0);fill-rule:nonzero;"/>
            <path d="M1530.961,2123.055C1532.268,2123.944 1532.922,2124.99 1532.922,2126.193C1532.922,2127.814 1531.249,2130.586 1527.902,2134.508C1518.959,2144.862 1510.122,2150.04 1501.388,2150.04C1496.054,2150.04 1491.661,2147.922 1488.21,2143.686C1484.758,2139.45 1483.033,2134.037 1483.033,2127.448C1483.033,2115.525 1487.543,2103.458 1496.564,2091.247C1505.585,2079.036 1514.514,2072.931 1523.352,2072.931C1529.732,2072.931 1532.922,2076.356 1532.922,2083.207C1532.922,2090.894 1529.196,2098.398 1521.744,2105.72C1514.292,2113.041 1505.206,2118.14 1494.485,2121.016C1495.531,2133.619 1500.499,2139.92 1509.389,2139.92C1518.175,2139.92 1525.366,2134.299 1530.961,2123.055ZM1494.799,2111.446C1496.316,2111.969 1497.701,2112.23 1498.957,2112.23C1505.441,2112.23 1511.115,2110.243 1515.979,2106.269C1520.842,2102.294 1523.274,2097.64 1523.274,2092.306C1523.274,2086.187 1520.162,2083.128 1513.939,2083.128C1509.442,2083.128 1505.376,2085.808 1501.741,2091.168C1498.107,2096.529 1495.793,2103.288 1494.799,2111.446Z" style="fill:rgb(255,2,0);fill-rule:nonzero;"/>
            <path d="M1604.226,2145.255L1592.617,2150.04L1592.852,2147.843L1593.48,2142.038L1594.029,2136.547L1597.951,2101.327L1598.5,2097.326C1598.709,2095.234 1598.814,2093.195 1598.814,2091.208C1598.814,2086.135 1597.271,2083.599 1594.186,2083.599C1589.375,2083.599 1583.766,2088.514 1577.36,2098.346C1570.954,2108.177 1567.254,2117.538 1566.26,2126.428L1564.221,2145.255L1552.533,2150.04L1552.768,2147.843L1553.396,2142.038L1554.023,2136.547L1558.024,2100.15L1558.494,2095.993C1558.86,2092.75 1559.043,2090.136 1559.043,2088.148C1559.043,2084.802 1558.207,2083.128 1556.533,2083.128C1552.611,2083.128 1548.375,2087.573 1543.826,2096.463C1542.623,2095.47 1542.021,2094.607 1542.021,2093.875C1542.021,2090.737 1544.885,2086.462 1550.611,2081.049C1556.337,2075.637 1560.874,2072.931 1564.221,2072.931C1568.718,2072.931 1570.967,2075.807 1570.967,2081.559C1570.967,2083.024 1570.836,2084.985 1570.574,2087.442L1569.947,2093.796L1569.319,2099.13L1568.692,2104.7L1570.888,2101.248C1582.602,2082.37 1593.506,2072.931 1603.599,2072.931C1608.462,2072.931 1610.894,2076.434 1610.894,2083.442C1610.894,2084.645 1610.685,2087.181 1610.266,2091.051L1609.482,2098.267L1608.384,2108.073C1613.247,2097.98 1619.013,2089.6 1625.68,2082.932C1632.348,2076.264 1638.296,2072.931 1643.526,2072.931C1648.703,2072.931 1651.292,2076.277 1651.292,2082.971C1651.292,2085.847 1651.004,2089.273 1650.429,2093.247L1646.271,2122.349C1645.382,2128.363 1644.938,2133.017 1644.938,2136.312C1644.938,2139.084 1645.696,2140.47 1647.213,2140.47C1648.991,2140.47 1651.226,2138.979 1653.92,2135.998C1656.613,2133.017 1658.77,2129.644 1660.391,2125.879C1661.803,2126.821 1662.509,2127.683 1662.509,2128.468C1662.509,2131.762 1659.594,2136.181 1653.763,2141.725C1647.932,2147.268 1643.291,2150.04 1639.839,2150.04C1635.394,2150.04 1633.172,2147.059 1633.172,2141.097C1633.172,2137.332 1633.747,2131.501 1634.897,2123.604L1637.643,2104.7C1637.747,2104.02 1637.93,2102.53 1638.192,2100.229C1638.296,2099.287 1638.479,2097.692 1638.741,2095.444C1639.002,2093.195 1639.133,2091.469 1639.133,2090.266C1639.133,2085.821 1637.669,2083.599 1634.74,2083.599C1629.825,2083.599 1624.111,2088.514 1617.601,2098.346C1611.09,2108.177 1607.338,2117.538 1606.344,2126.428L1604.226,2145.255Z" style="fill:rgb(255,2,0);fill-rule:nonzero;"/>
            <path d="M1717.419,2123.055C1718.726,2123.944 1719.38,2124.99 1719.38,2126.193C1719.38,2127.814 1717.706,2130.586 1714.359,2134.508C1705.417,2144.862 1696.579,2150.04 1687.846,2150.04C1682.512,2150.04 1678.119,2147.922 1674.668,2143.686C1671.216,2139.45 1669.49,2134.037 1669.49,2127.448C1669.49,2115.525 1674.001,2103.458 1683.022,2091.247C1692.043,2079.036 1700.972,2072.931 1709.81,2072.931C1716.19,2072.931 1719.38,2076.356 1719.38,2083.207C1719.38,2090.894 1715.654,2098.398 1708.202,2105.72C1700.75,2113.041 1691.663,2118.14 1680.943,2121.016C1681.989,2133.619 1686.957,2139.92 1695.847,2139.92C1704.633,2139.92 1711.823,2134.299 1717.419,2123.055ZM1681.257,2111.446C1682.773,2111.969 1684.159,2112.23 1685.414,2112.23C1691.899,2112.23 1697.573,2110.243 1702.436,2106.269C1707.3,2102.294 1709.731,2097.64 1709.731,2092.306C1709.731,2086.187 1706.62,2083.128 1700.397,2083.128C1695.899,2083.128 1691.833,2085.808 1688.199,2091.168C1684.564,2096.529 1682.25,2103.288 1681.257,2111.446Z" style="fill:rgb(255,2,0);fill-rule:nonzero;"/>
            <path d="M1750.6,2145.255L1738.912,2150.04L1739.147,2147.843L1739.775,2142.038L1740.402,2136.547L1744.481,2100.15L1744.952,2095.993C1745.266,2092.75 1745.423,2090.136 1745.423,2088.148C1745.423,2084.802 1744.586,2083.128 1742.913,2083.128C1738.99,2083.128 1734.781,2087.573 1730.283,2096.463C1729.081,2095.47 1728.479,2094.607 1728.479,2093.875C1728.479,2090.737 1731.342,2086.462 1737.069,2081.049C1742.795,2075.637 1747.305,2072.931 1750.6,2072.931C1755.097,2072.931 1757.346,2075.807 1757.346,2081.559C1757.346,2083.024 1757.215,2084.985 1756.954,2087.442L1756.326,2093.796L1755.699,2099.13L1755.071,2104.7C1761.242,2095.496 1768.001,2087.9 1775.348,2081.912C1782.696,2075.924 1788.958,2072.931 1794.135,2072.931C1799.208,2072.931 1801.744,2076.46 1801.744,2083.52C1801.744,2085.664 1801.457,2088.881 1800.881,2093.169L1796.646,2122.428C1795.809,2128.285 1795.391,2132.913 1795.391,2136.312C1795.391,2139.031 1796.123,2140.391 1797.587,2140.391C1801.195,2140.391 1805.64,2135.58 1810.922,2125.958C1812.177,2126.742 1812.805,2127.553 1812.805,2128.389C1812.805,2131.789 1809.889,2136.247 1804.058,2141.764C1798.228,2147.281 1793.482,2150.04 1789.821,2150.04C1785.742,2150.04 1783.703,2147.111 1783.703,2141.254C1783.703,2136.966 1784.252,2131.03 1785.35,2123.448L1788.095,2104.464C1788.984,2098.294 1789.429,2093.404 1789.429,2089.796C1789.429,2085.664 1787.991,2083.599 1785.115,2083.599C1778.421,2083.599 1771.636,2088.135 1764.759,2097.209C1757.882,2106.282 1753.868,2116.022 1752.718,2126.428L1750.6,2145.255Z" style="fill:rgb(255,2,0);fill-rule:nonzero;"/>
            <path d="M1844.731,2084.069L1840.809,2118.741C1840.129,2124.964 1839.789,2129.566 1839.789,2132.547C1839.789,2138.456 1841.802,2141.411 1845.829,2141.411C1850.169,2141.411 1854.667,2137.855 1859.321,2130.743C1860.106,2131.736 1860.498,2132.625 1860.498,2133.41C1860.498,2136.338 1857.922,2139.842 1852.771,2143.921C1847.62,2148 1843.188,2150.04 1839.475,2150.04C1832.049,2150.04 1828.336,2145.281 1828.336,2135.763C1828.336,2132.259 1828.781,2126.585 1829.67,2118.741L1833.514,2084.069L1816.962,2084.069L1826.14,2074.97L1834.533,2074.97L1836.181,2060.694L1847.712,2056.85L1845.751,2074.97L1879.01,2074.97L1869.832,2084.069L1844.731,2084.069Z" style="fill:rgb(255,2,0);fill-rule:nonzero;"/>
            <path d="M1920.036,2134.116L1933.371,2126.036C1935.463,2138.901 1943.176,2145.333 1956.511,2145.333C1962.996,2145.333 1968.304,2143.568 1972.435,2140.038C1976.566,2136.508 1978.632,2131.972 1978.632,2126.428C1978.632,2118.846 1974.056,2111.315 1964.905,2103.837L1955.413,2096.15C1947.778,2089.874 1942.679,2084.919 1940.117,2081.285C1937.554,2077.65 1936.273,2073.558 1936.273,2069.008C1936.273,2060.432 1939.698,2053.346 1946.549,2047.751C1953.4,2042.155 1962.055,2039.357 1972.514,2039.357C1980.828,2039.357 1988.699,2041.344 1996.125,2045.319L1991.575,2055.752L1989.536,2060.38C1988.385,2063.099 1987.025,2064.459 1985.457,2064.459C1984.777,2064.459 1984.071,2064.197 1983.339,2063.674C1984.228,2060.955 1984.672,2058.785 1984.672,2057.164C1984.672,2053.817 1982.829,2051.019 1979.142,2048.77C1975.455,2046.522 1970.892,2045.397 1965.454,2045.397C1953.112,2045.397 1946.941,2050.496 1946.941,2060.694C1946.941,2064.354 1948.314,2067.871 1951.06,2071.244C1953.805,2074.617 1959.518,2079.834 1968.199,2086.893L1975.808,2093.169C1985.483,2101.013 1990.32,2109.249 1990.32,2117.878C1990.32,2127.396 1986.306,2135.318 1978.279,2141.646C1970.252,2147.974 1960.224,2151.138 1948.196,2151.138C1933.554,2151.138 1924.167,2145.464 1920.036,2134.116Z" style="fill:rgb(255,2,0);fill-rule:nonzero;"/>
            <path d="M2063.507,2116.78C2058.225,2126.402 2052.695,2134.351 2046.916,2140.626C2041.138,2146.902 2036.418,2150.04 2032.757,2150.04C2027.737,2150.04 2024.965,2144.758 2024.442,2134.194L2023.893,2123.291L2022.874,2101.091L2022.638,2094.738C2022.168,2086.318 2020.625,2082.108 2018.01,2082.108C2013.931,2082.108 2009.957,2085.978 2006.087,2093.718C2004.727,2092.777 2004.047,2091.757 2004.047,2090.659C2004.047,2087.835 2006.584,2084.174 2011.656,2079.677C2016.729,2075.179 2020.86,2072.931 2024.05,2072.931C2027.345,2072.931 2029.672,2074.408 2031.032,2077.363C2032.391,2080.317 2033.28,2085.769 2033.699,2093.718L2035.111,2121.173C2035.634,2131.632 2037.307,2136.861 2040.131,2136.861C2044.367,2136.861 2049.622,2132.011 2055.898,2122.31C2062.173,2112.609 2066.2,2103.079 2067.978,2093.718L2071.037,2077.716L2085,2072.852C2083.222,2077.454 2081.392,2084.409 2079.509,2093.718L2068.998,2146.353C2064.866,2166.957 2058.486,2182.175 2049.858,2192.006C2036.941,2206.649 2021.985,2213.97 2004.989,2213.97C2001.433,2213.97 1997.432,2213.186 1992.987,2211.617L2002.635,2201.027C2007.551,2203.223 2012.676,2204.322 2018.01,2204.322C2028.888,2204.322 2037.046,2200.792 2042.484,2193.732C2047.923,2186.672 2052.473,2173.729 2056.133,2154.903L2063.507,2116.78Z" style="fill:rgb(255,2,0);fill-rule:nonzero;"/>
            <path d="M2088.138,2145.804L2098.963,2136.94C2103.042,2141.28 2108.167,2143.45 2114.337,2143.45C2121.868,2143.45 2125.633,2139.816 2125.633,2132.547C2125.633,2128.52 2122.182,2122.898 2115.279,2115.682L2110.808,2111.054C2104.271,2104.203 2101.002,2098.66 2101.002,2094.424C2101.002,2088.358 2103.63,2083.259 2108.886,2079.128C2114.141,2074.996 2120.613,2072.931 2128.3,2072.931C2132.484,2072.931 2137.06,2073.715 2142.028,2075.284L2132.615,2083.991C2128.64,2081.01 2124.221,2079.52 2119.358,2079.52C2113.658,2079.52 2110.808,2081.899 2110.808,2086.658C2110.808,2090.057 2113.971,2095.051 2120.299,2101.641L2125.163,2106.818C2132.379,2114.348 2135.988,2120.414 2135.988,2125.016C2135.988,2131.606 2132.824,2137.423 2126.496,2142.47C2120.168,2147.516 2112.873,2150.04 2104.611,2150.04C2098.754,2150.04 2093.263,2148.628 2088.138,2145.804Z" style="fill:rgb(255,2,0);fill-rule:nonzero;"/>
            <path d="M2174.817,2084.069L2170.894,2118.741C2170.215,2124.964 2169.875,2129.566 2169.875,2132.547C2169.875,2138.456 2171.888,2141.411 2175.915,2141.411C2180.255,2141.411 2184.753,2137.855 2189.407,2130.743C2190.191,2131.736 2190.584,2132.625 2190.584,2133.41C2190.584,2136.338 2188.008,2139.842 2182.857,2143.921C2177.706,2148 2173.274,2150.04 2169.561,2150.04C2162.135,2150.04 2158.422,2145.281 2158.422,2135.763C2158.422,2132.259 2158.867,2126.585 2159.756,2118.741L2163.599,2084.069L2147.048,2084.069L2156.226,2074.97L2164.619,2074.97L2166.266,2060.694L2177.797,2056.85L2175.836,2074.97L2209.096,2074.97L2199.918,2084.069L2174.817,2084.069Z" style="fill:rgb(255,2,0);fill-rule:nonzero;"/>
            <path d="M2254.749,2123.055C2256.057,2123.944 2256.71,2124.99 2256.71,2126.193C2256.71,2127.814 2255.037,2130.586 2251.69,2134.508C2242.748,2144.862 2233.91,2150.04 2225.177,2150.04C2219.843,2150.04 2215.45,2147.922 2211.998,2143.686C2208.547,2139.45 2206.821,2134.037 2206.821,2127.448C2206.821,2115.525 2211.332,2103.458 2220.352,2091.247C2229.373,2079.036 2238.303,2072.931 2247.141,2072.931C2253.521,2072.931 2256.71,2076.356 2256.71,2083.207C2256.71,2090.894 2252.984,2098.398 2245.532,2105.72C2238.08,2113.041 2228.994,2118.14 2218.274,2121.016C2219.32,2133.619 2224.288,2139.92 2233.178,2139.92C2241.963,2139.92 2249.154,2134.299 2254.749,2123.055ZM2218.587,2111.446C2220.104,2111.969 2221.49,2112.23 2222.745,2112.23C2229.229,2112.23 2234.903,2110.243 2239.767,2106.269C2244.63,2102.294 2247.062,2097.64 2247.062,2092.306C2247.062,2086.187 2243.951,2083.128 2237.727,2083.128C2233.23,2083.128 2229.164,2085.808 2225.53,2091.168C2221.895,2096.529 2219.581,2103.288 2218.587,2111.446Z" style="fill:rgb(255,2,0);fill-rule:nonzero;"/>
            <path d="M2328.015,2145.255L2316.405,2150.04L2316.641,2147.843L2317.268,2142.038L2317.817,2136.547L2321.739,2101.327L2322.288,2097.326C2322.498,2095.234 2322.602,2093.195 2322.602,2091.208C2322.602,2086.135 2321.059,2083.599 2317.974,2083.599C2313.163,2083.599 2307.554,2088.514 2301.148,2098.346C2294.742,2108.177 2291.042,2117.538 2290.049,2126.428L2288.009,2145.255L2276.321,2150.04L2276.556,2147.843L2277.184,2142.038L2277.812,2136.547L2281.812,2100.15L2282.283,2095.993C2282.649,2092.75 2282.832,2090.136 2282.832,2088.148C2282.832,2084.802 2281.995,2083.128 2280.322,2083.128C2276.4,2083.128 2272.164,2087.573 2267.614,2096.463C2266.411,2095.47 2265.81,2094.607 2265.81,2093.875C2265.81,2090.737 2268.673,2086.462 2274.399,2081.049C2280.126,2075.637 2284.662,2072.931 2288.009,2072.931C2292.506,2072.931 2294.755,2075.807 2294.755,2081.559C2294.755,2083.024 2294.624,2084.985 2294.363,2087.442L2293.735,2093.796L2293.108,2099.13L2292.48,2104.7L2294.677,2101.248C2306.391,2082.37 2317.294,2072.931 2327.387,2072.931C2332.251,2072.931 2334.682,2076.434 2334.682,2083.442C2334.682,2084.645 2334.473,2087.181 2334.055,2091.051L2333.27,2098.267L2332.172,2108.073C2337.036,2097.98 2342.801,2089.6 2349.469,2082.932C2356.136,2076.264 2362.085,2072.931 2367.314,2072.931C2372.492,2072.931 2375.08,2076.277 2375.08,2082.971C2375.08,2085.847 2374.793,2089.273 2374.217,2093.247L2370.06,2122.349C2369.171,2128.363 2368.726,2133.017 2368.726,2136.312C2368.726,2139.084 2369.485,2140.47 2371.001,2140.47C2372.779,2140.47 2375.015,2138.979 2377.708,2135.998C2380.401,2133.017 2382.558,2129.644 2384.179,2125.879C2385.591,2126.821 2386.297,2127.683 2386.297,2128.468C2386.297,2131.762 2383.382,2136.181 2377.551,2141.725C2371.72,2147.268 2367.079,2150.04 2363.628,2150.04C2359.182,2150.04 2356.96,2147.059 2356.96,2141.097C2356.96,2137.332 2357.535,2131.501 2358.686,2123.604L2361.431,2104.7C2361.536,2104.02 2361.719,2102.53 2361.98,2100.229C2362.085,2099.287 2362.268,2097.692 2362.529,2095.444C2362.791,2093.195 2362.922,2091.469 2362.922,2090.266C2362.922,2085.821 2361.457,2083.599 2358.529,2083.599C2353.613,2083.599 2347.9,2088.514 2341.389,2098.346C2334.878,2108.177 2331.126,2117.538 2330.133,2126.428L2328.015,2145.255Z" style="fill:rgb(255,2,0);fill-rule:nonzero;"/>
        </g>
        <g transform="matrix(0,0.778255,-0.778255,0,1683.845108,1290.723147)">
            <path d="M581.811,1661L581.811,1647.615L608.581,1647.615L608.581,1661C608.581,1760.624 527.82,1841.385 428.196,1841.385C380.756,1841.385 337.568,1823.033 305.352,1793.047C269.959,1760.104 247.811,1713.118 247.811,1661C247.811,1561.376 328.572,1480.615 428.196,1480.615L441.581,1480.615L441.581,1507.385L428.196,1507.385C343.356,1507.385 274.581,1576.161 274.581,1661C274.581,1705.385 293.449,1745.397 323.59,1773.452C351.024,1798.987 387.799,1814.615 428.196,1814.615C513.035,1814.615 581.811,1745.839 581.811,1661Z" style="fill:rgb(255,2,0);"/>
        </g>
    </g>
</svg>
