<?xml version="1.0" encoding="UTF-8" standalone="no"?>
<!DOCTYPE svg PUBLIC "-//W3C//DTD SVG 1.1//EN" "http://www.w3.org/Graphics/SVG/1.1/DTD/svg11.dtd">
<svg width="100%" height="100%" viewBox="0 0 2057 589" version="1.1" xmlns="http://www.w3.org/2000/svg" xmlns:xlink="http://www.w3.org/1999/xlink" xml:space="preserve" xmlns:serif="http://www.serif.com/" style="fill-rule:evenodd;clip-rule:evenodd;stroke-linejoin:round;stroke-miterlimit:2;">
    <g transform="matrix(1,0,0,1,-2177.558259,0)">
        <g id="Logo" transform="matrix(1,0,0,0.746515,1963.558259,-1069.008872)">
            <rect x="214" y="1432" width="2057" height="789" style="fill:none;"/>
            <g transform="matrix(1.300623,0,0,1.742261,-3093.445667,1241.836486)">
                <path d="M2890.06,430.945C2862.509,467.305 2818.863,490.81 2769.771,490.81C2686.524,490.81 2618.938,423.224 2618.938,339.977C2618.938,295.012 2632.081,189.144 2632.081,189.144L2769.771,189.144C2853.018,189.144 2916.294,306.761 2912.347,301.405C2908.4,296.048 2903.325,291.867 2897.123,288.859C2890.921,285.852 2884.061,283.832 2876.543,282.798C2869.026,281.765 2861.602,281.248 2854.272,281.248C2846.19,281.248 2838.156,282.046 2830.168,283.644C2822.181,285.241 2814.992,287.92 2808.602,291.679C2802.212,295.437 2796.949,300.418 2792.814,306.62C2788.68,312.822 2786.33,320.622 2785.766,330.019L2825.799,330.019C2826.55,322.126 2829.182,316.487 2833.692,313.104C2838.203,309.721 2844.405,308.03 2852.299,308.03C2855.87,308.03 2859.206,308.265 2862.307,308.735C2865.408,309.204 2868.133,310.144 2870.482,311.554C2872.832,312.963 2874.711,314.937 2876.121,317.474C2877.53,320.011 2878.235,323.441 2878.235,327.764C2878.423,331.899 2877.201,335.047 2874.57,337.208C2871.939,339.369 2868.368,341.014 2863.857,342.142C2859.347,343.269 2854.178,344.115 2848.352,344.679C2842.526,345.243 2836.605,345.994 2830.591,346.934C2824.577,347.874 2818.61,349.142 2812.689,350.74C2806.769,352.338 2801.507,354.734 2796.902,357.929C2792.298,361.124 2788.539,365.4 2785.626,370.756C2782.712,376.112 2781.256,382.925 2781.256,391.195C2781.256,398.713 2782.524,405.197 2785.062,410.647C2787.599,416.098 2791.123,420.608 2795.634,424.179C2800.144,427.75 2805.407,430.381 2811.421,432.073C2817.435,433.764 2823.919,434.61 2830.873,434.61C2839.894,434.61 2848.728,433.294 2857.373,430.663C2866.019,428.032 2873.536,423.427 2879.926,416.849C2880.114,419.293 2880.443,421.689 2880.913,424.038C2881.383,426.388 2881.994,428.69 2882.746,430.945L2890.06,430.945ZM2738.968,285.195L2738.968,241.498L2698.936,241.498L2698.936,285.195L2674.691,285.195L2674.691,311.977L2698.936,311.977L2698.936,397.961C2698.936,405.291 2700.158,411.211 2702.601,415.722C2705.044,420.232 2708.38,423.709 2712.609,426.153C2716.838,428.596 2721.725,430.24 2727.269,431.086C2732.813,431.932 2738.686,432.355 2744.889,432.355C2748.835,432.355 2752.876,432.261 2757.011,432.073C2761.146,431.885 2764.905,431.509 2768.288,430.945L2768.288,399.934C2766.408,400.31 2764.435,400.592 2762.367,400.78C2760.3,400.968 2758.139,401.062 2755.883,401.062C2749.117,401.062 2744.607,399.934 2742.351,397.679C2740.096,395.424 2738.968,390.913 2738.968,384.147L2738.968,311.977L2768.288,311.977L2768.288,285.195L2738.968,285.195ZM2878.235,359.62L2878.235,374.562C2878.235,376.817 2878,379.824 2877.53,383.583C2877.06,387.342 2875.792,391.054 2873.724,394.719C2871.657,398.384 2868.462,401.532 2864.139,404.163C2859.816,406.794 2853.708,408.11 2845.815,408.11C2842.62,408.11 2839.518,407.828 2836.511,407.264C2833.504,406.7 2830.873,405.714 2828.618,404.304C2826.362,402.895 2824.577,400.968 2823.261,398.525C2821.946,396.082 2821.288,393.074 2821.288,389.503C2821.288,385.745 2821.946,382.644 2823.261,380.2C2824.577,377.757 2826.315,375.737 2828.477,374.139C2830.638,372.542 2833.175,371.273 2836.088,370.333C2839.002,369.393 2841.962,368.642 2844.969,368.078C2848.164,367.514 2851.359,367.044 2854.554,366.668C2857.749,366.292 2860.803,365.823 2863.716,365.259C2866.629,364.695 2869.355,363.99 2871.892,363.144C2874.429,362.299 2876.543,361.124 2878.235,359.62ZM2933.901,229.657L2973.933,229.657L2973.933,302.955L2974.497,302.955C2979.383,295.437 2986.008,289.94 2994.372,286.463C3002.735,282.986 3011.428,281.248 3020.449,281.248C3027.779,281.248 3035.015,282.751 3042.156,285.758C3049.298,288.765 3055.735,293.37 3061.468,299.572C3067.2,305.774 3071.852,313.715 3075.422,323.394C3078.993,333.073 3080.779,344.585 3080.779,357.929C3080.779,371.273 3078.993,382.784 3075.422,392.464C3071.852,402.143 3067.2,410.083 3061.468,416.286C3055.735,422.488 3049.298,427.092 3042.156,430.099C3035.015,433.107 3027.779,434.61 3020.449,434.61C3009.736,434.61 3000.151,432.919 2991.693,429.536C2983.236,426.153 2976.846,420.42 2972.523,412.339L2971.959,412.339L2971.959,430.945L2933.901,430.945L2933.901,229.657ZM3040.747,358.211C3040.747,352.009 3040.089,346.088 3038.773,340.45C3037.458,334.812 3035.39,329.831 3032.571,325.509C3029.752,321.186 3026.228,317.756 3021.999,315.219C3017.771,312.681 3012.649,311.413 3006.635,311.413C3000.809,311.413 2995.734,312.681 2991.411,315.219C2987.089,317.756 2983.518,321.186 2980.699,325.509C2977.88,329.831 2975.812,334.812 2974.497,340.45C2973.181,346.088 2972.523,352.009 2972.523,358.211C2972.523,364.225 2973.181,370.051 2974.497,375.69C2975.812,381.328 2977.88,386.308 2980.699,390.631C2983.518,394.954 2987.089,398.384 2991.411,400.921C2995.734,403.458 3000.809,404.727 3006.635,404.727C3012.649,404.727 3017.771,403.458 3021.999,400.921C3026.228,398.384 3029.752,394.954 3032.571,390.631C3035.39,386.308 3037.458,381.328 3038.773,375.69C3040.089,370.051 3040.747,364.225 3040.747,358.211ZM3107.279,229.657L3147.311,229.657L3147.311,430.945L3107.279,430.945L3107.279,229.657ZM3211.87,367.796C3212.434,380.764 3215.723,390.161 3221.737,395.988C3227.751,401.814 3236.397,404.727 3247.673,404.727C3255.755,404.727 3262.709,402.707 3268.535,398.666C3274.361,394.625 3277.932,390.349 3279.248,385.839L3314.487,385.839C3308.849,403.317 3300.204,415.816 3288.551,423.333C3276.899,430.851 3262.803,434.61 3246.264,434.61C3234.799,434.61 3224.462,432.778 3215.253,429.113C3206.044,425.448 3198.244,420.232 3191.854,413.466C3185.464,406.7 3180.53,398.619 3177.053,389.222C3173.576,379.824 3171.838,369.487 3171.838,358.211C3171.838,347.31 3173.623,337.161 3177.194,327.764C3180.765,318.367 3185.84,310.238 3192.418,303.378C3198.996,296.518 3206.842,291.115 3215.958,287.168C3225.073,283.221 3235.175,281.248 3246.264,281.248C3258.668,281.248 3269.475,283.644 3278.684,288.437C3287.893,293.229 3295.458,299.666 3301.378,307.748C3307.299,315.829 3311.574,325.039 3314.205,335.376C3316.837,345.713 3317.776,356.519 3317.025,367.796L3211.87,367.796ZM3276.993,342.423C3275.113,332.275 3271.777,324.569 3266.985,319.306C3262.192,314.044 3254.909,311.413 3245.136,311.413C3238.746,311.413 3233.437,312.493 3229.208,314.655C3224.979,316.816 3221.596,319.494 3219.059,322.689C3216.522,325.884 3214.736,329.267 3213.702,332.838C3212.669,336.409 3212.058,339.604 3211.87,342.423L3276.993,342.423ZM3371.716,383.583C3371.716,387.906 3372.609,391.618 3374.395,394.719C3376.18,397.82 3378.482,400.357 3381.302,402.331C3384.121,404.304 3387.363,405.761 3391.028,406.7C3394.693,407.64 3398.498,408.11 3402.445,408.11C3405.264,408.11 3408.225,407.781 3411.326,407.123C3414.427,406.465 3417.246,405.432 3419.783,404.022C3422.32,402.613 3424.435,400.733 3426.126,398.384C3427.818,396.035 3428.663,393.074 3428.663,389.503C3428.663,383.489 3424.67,378.979 3416.682,375.972C3408.694,372.964 3397.559,369.957 3383.275,366.95C3377.449,365.635 3371.763,364.084 3366.219,362.299C3360.675,360.513 3355.741,358.164 3351.418,355.251C3347.096,352.338 3343.619,348.673 3340.988,344.256C3338.356,339.839 3337.041,334.436 3337.041,328.046C3337.041,318.649 3338.873,310.943 3342.538,304.929C3346.203,298.914 3351.043,294.169 3357.057,290.692C3363.071,287.215 3369.837,284.772 3377.355,283.362C3384.872,281.952 3392.578,281.248 3400.472,281.248C3408.365,281.248 3416.024,281.999 3423.448,283.503C3430.872,285.007 3437.497,287.544 3443.323,291.115C3449.149,294.686 3453.989,299.431 3457.842,305.352C3461.695,311.272 3463.997,318.743 3464.749,327.764L3426.69,327.764C3426.126,320.058 3423.213,314.843 3417.951,312.118C3412.688,309.392 3406.486,308.03 3399.344,308.03C3397.089,308.03 3394.646,308.171 3392.014,308.453C3389.383,308.735 3386.987,309.345 3384.825,310.285C3382.664,311.225 3380.832,312.587 3379.328,314.373C3377.825,316.158 3377.073,318.555 3377.073,321.562C3377.073,325.133 3378.388,328.046 3381.02,330.301C3383.651,332.556 3387.081,334.389 3391.31,335.798C3395.538,337.208 3400.378,338.477 3405.828,339.604C3411.279,340.732 3416.823,341.954 3422.461,343.269C3428.288,344.585 3433.973,346.182 3439.517,348.062C3445.062,349.941 3449.995,352.432 3454.318,355.533C3458.641,358.634 3462.117,362.487 3464.749,367.091C3467.38,371.696 3468.696,377.381 3468.696,384.147C3468.696,393.732 3466.769,401.767 3462.916,408.251C3459.063,414.735 3454.036,419.95 3447.834,423.897C3441.632,427.844 3434.537,430.616 3426.549,432.214C3418.561,433.811 3410.433,434.61 3402.163,434.61C3393.706,434.61 3385.436,433.764 3377.355,432.073C3369.273,430.381 3362.084,427.562 3355.788,423.615C3349.492,419.669 3344.324,414.453 3340.283,407.969C3336.242,401.485 3334.034,393.356 3333.658,383.583L3371.716,383.583ZM3596.404,331.147C3593.96,320.246 3589.45,311.695 3582.872,305.492C3576.294,299.29 3567.084,296.189 3555.244,296.189C3546.786,296.189 3539.363,297.975 3532.972,301.546C3526.582,305.117 3521.273,309.815 3517.044,315.641C3512.815,321.468 3509.62,328.093 3507.459,335.517C3505.298,342.94 3504.217,350.505 3504.217,358.211C3504.217,365.917 3505.298,373.481 3507.459,380.905C3509.62,388.329 3512.815,394.954 3517.044,400.78C3521.273,406.606 3526.582,411.305 3532.972,414.876C3539.363,418.447 3546.786,420.232 3555.244,420.232C3560.694,420.232 3565.863,419.199 3570.749,417.131C3575.636,415.064 3579.958,412.198 3583.717,408.533C3587.476,404.868 3590.577,400.498 3593.021,395.424C3595.464,390.349 3596.967,384.805 3597.531,378.791L3615.292,378.791C3612.849,396.457 3606.365,410.224 3595.84,420.091C3585.315,429.958 3571.783,434.892 3555.244,434.892C3544.155,434.892 3534.335,432.872 3525.784,428.831C3517.232,424.79 3510.043,419.293 3504.217,412.339C3498.391,405.385 3493.974,397.256 3490.967,387.953C3487.96,378.65 3486.456,368.736 3486.456,358.211C3486.456,347.686 3487.96,337.772 3490.967,328.469C3493.974,319.165 3498.391,311.037 3504.217,304.083C3510.043,297.129 3517.232,291.585 3525.784,287.45C3534.335,283.315 3544.155,281.248 3555.244,281.248C3570.843,281.248 3584.046,285.382 3594.853,293.652C3605.66,301.922 3612.097,314.42 3614.164,331.147L3596.404,331.147ZM3640.101,285.476L3656.452,285.476L3656.452,310.003L3657.297,310.003C3661.996,300.982 3668.151,293.934 3675.763,288.859C3683.375,283.785 3693.101,281.248 3704.941,281.248C3714.526,281.248 3723.219,283.597 3731.019,288.296C3738.818,292.994 3744.034,300.136 3746.665,309.721C3750.988,300.136 3757.378,292.994 3765.835,288.296C3774.293,283.597 3783.314,281.248 3792.899,281.248C3825.038,281.248 3841.107,298.257 3841.107,332.275L3841.107,430.945L3823.346,430.945L3823.346,333.12C3823.346,321.092 3820.809,311.93 3815.734,305.633C3810.66,299.337 3801.732,296.189 3788.952,296.189C3781.247,296.189 3774.856,297.646 3769.782,300.559C3764.707,303.472 3760.667,307.372 3757.66,312.258C3754.652,317.145 3752.538,322.736 3751.316,329.032C3750.095,335.329 3749.484,341.86 3749.484,348.626L3749.484,430.945L3731.723,430.945L3731.723,332.275C3731.723,327.388 3731.206,322.736 3730.173,318.32C3729.139,313.903 3727.448,310.05 3725.098,306.761C3722.749,303.472 3719.601,300.888 3715.654,299.008C3711.707,297.129 3706.915,296.189 3701.276,296.189C3693.759,296.189 3687.228,297.552 3681.683,300.277C3676.139,303.002 3671.628,306.761 3668.151,311.554C3664.674,316.346 3662.09,321.985 3660.399,328.469C3658.707,334.953 3657.861,342.048 3657.861,349.753L3657.861,430.945L3640.101,430.945L3640.101,285.476ZM3962.049,328.046C3961.861,322.595 3960.733,317.85 3958.666,313.809C3956.598,309.768 3953.826,306.432 3950.349,303.801C3946.872,301.17 3942.879,299.243 3938.368,298.022C3933.857,296.8 3929.065,296.189 3923.99,296.189C3920.043,296.189 3916.049,296.612 3912.009,297.458C3907.968,298.304 3904.256,299.713 3900.873,301.687C3897.49,303.66 3894.765,306.244 3892.697,309.439C3890.63,312.634 3889.596,316.581 3889.596,321.28C3889.596,325.227 3890.583,328.563 3892.556,331.288C3894.53,334.013 3897.02,336.315 3900.027,338.195C3903.034,340.074 3906.323,341.625 3909.894,342.846C3913.465,344.068 3916.754,345.055 3919.761,345.806L3943.442,351.163C3948.517,351.915 3953.544,353.277 3958.525,355.251C3963.505,357.224 3967.922,359.808 3971.775,363.003C3975.628,366.198 3978.776,370.145 3981.219,374.844C3983.662,379.542 3984.884,385.087 3984.884,391.477C3984.884,399.371 3983.099,406.09 3979.528,411.634C3975.957,417.178 3971.399,421.689 3965.855,425.166C3960.31,428.643 3954.061,431.133 3947.107,432.637C3940.153,434.14 3933.293,434.892 3926.527,434.892C3909.424,434.892 3895.564,430.851 3884.945,422.77C3874.326,414.688 3868.265,401.72 3866.761,383.865L3884.522,383.865C3885.274,395.894 3889.643,404.962 3897.631,411.07C3905.619,417.178 3915.533,420.232 3927.373,420.232C3931.696,420.232 3936.16,419.762 3940.764,418.823C3945.369,417.883 3949.644,416.286 3953.591,414.03C3957.538,411.775 3960.78,408.909 3963.317,405.432C3965.855,401.955 3967.123,397.679 3967.123,392.605C3967.123,388.282 3966.231,384.664 3964.445,381.751C3962.66,378.838 3960.263,376.394 3957.256,374.421C3954.249,372.448 3950.819,370.803 3946.966,369.487C3943.113,368.172 3939.214,367.044 3935.267,366.104L3912.432,361.03C3906.605,359.526 3901.249,357.788 3896.362,355.815C3891.476,353.841 3887.2,351.398 3883.535,348.485C3879.87,345.572 3877.004,342.001 3874.937,337.772C3872.869,333.543 3871.836,328.328 3871.836,322.126C3871.836,314.796 3873.48,308.5 3876.769,303.237C3880.058,297.975 3884.334,293.746 3889.596,290.551C3894.859,287.356 3900.732,285.007 3907.216,283.503C3913.7,281.999 3920.137,281.248 3926.527,281.248C3933.857,281.248 3940.67,282.187 3946.966,284.067C3953.262,285.946 3958.807,288.859 3963.599,292.806C3968.392,296.753 3972.198,301.64 3975.017,307.466C3977.836,313.292 3979.434,320.152 3979.81,328.046L3962.049,328.046Z" style="fill:rgb(29,78,216);"/>
            </g>
        </g>
    </g>
</svg>
